<?xml version="1.0" encoding="utf-8"?>
<!-- Svg Vector Icons : http://www.onlinewebfonts.com/icon -->
<!DOCTYPE svg PUBLIC "-//W3C//DTD SVG 1.1//EN" "http://www.w3.org/Graphics/SVG/1.1/DTD/svg11.dtd">
<svg version="1.1" xmlns="http://www.w3.org/2000/svg" xmlns:xlink="http://www.w3.org/1999/xlink" x="0px" y="0px" viewBox="0 0 1000 1000" enable-background="new 0 0 1000 1000" xml:space="preserve">
<metadata> Svg Vector Icons : http://www.onlinewebfonts.com/icon </metadata>
<g><g transform="translate(0.000000,511.000000) scale(0.100000,-0.100000)"><path d="M4426.3,4949.8c-127.3-64.7-228.7-170.5-291.3-308.6c-38.8-84.2-47.5-155.4-53.9-470.4l-8.6-369l-522.2-8.6c-485.5-6.5-526.5-10.8-630.1-56.1c-135.9-62.6-250.3-174.8-315-317.2c-47.5-103.6-49.6-131.6-56.1-791.9l-6.5-686.2h-988.3H566.1l-133.8-66.9c-148.9-75.5-258.9-202.8-304.2-353.9c-21.6-64.7-25.9-768.2-28-2966.9c0-2828.8,2.1-2885,43.2-2977.7c58.3-131.6,142.4-226.6,263.2-297.8l99.3-58.3l4455.8-6.5c4904.6-4.3,4559.4-15.1,4732,127.3c43.2,36.7,105.7,112.2,140.3,166.2l58.3,101.4l6.5,2913c4.3,2065,0,2938.9-17.3,2999.3c-41,146.7-153.2,278.3-304.2,353.9l-133.8,66.9H8409.6c-567.5,0-1031.4,6.5-1029.3,17.3c0,8.6,51.8,53.9,112.2,101.4c146.7,116.5,226.6,233,256.8,377.6c32.4,157.5,8.6,293.5-75.5,433.7c-62.6,105.7-185.6,205-1352.9,1081c-705.6,530.8-1329.2,983.9-1385.3,1009.8C4786.7,5027.4,4570.9,5023.1,4426.3,4949.8z M7140.8,2565.4c0-8.6-545.9-422.9-1212.7-923.5L4713.3,731.3l-6.5,604.2l-4.3,606.3h-766h-766v615v615h766h766v615v615l1219.1-910.6C6590.6,2988.3,7138.7,2571.9,7140.8,2565.4z M4081.1,966.5c6.5-334.5,12.9-386.2,58.3-487.6c140.3-317.2,541.6-461.8,828.6-302.1c49.6,28,422.9,302.1,830.7,606.3l740.1,554.6h1381c826.4,0,1378.8-8.6,1378.8-19.4c0-25.9-4259.4-3152.5-4294-3152.5s-4294,3126.6-4294,3152.5c0,10.8,647.3,19.4,1680.9,19.4h1680.9L4081.1,966.5z M2130.5-118.8c761.7-556.7,1383.1-1018.5,1385.3-1024.9c0-6.5-630.1-643-1402.6-1413.3L710.6-3959.7v2434c0,1340,8.6,2431.8,17.3,2427.5C738.7,899.6,1368.8,440,2130.5-118.8z M9298.6-1536.5v-2444.7L7896-2578.7c-770.3,770.3-1402.6,1411.2-1402.6,1424.1c2.1,21.6,2755.5,2054.2,2790,2058.5C9292.1,906.1,9298.6-194.4,9298.6-1536.5z M4381-1771.7c407.8-299.9,580.4-414.3,623.6-414.3c43.2,0,215.8,114.4,617.1,407.8c308.5,226.6,571.8,418.6,586.9,427.2c28,17.3,189.9-142.4,2129.7-2097.4l731.5-737.9H5006.8H943.7l1409,1424.1c796.2,804.8,1422,1419.8,1437.1,1415.5C3804.9-1353.1,4070.3-1545.1,4381-1771.7z"/></g></g>
</svg>