<?xml version="1.0" encoding="utf-8"?>
<!-- Svg Vector Icons : http://www.onlinewebfonts.com/icon -->
<!DOCTYPE svg PUBLIC "-//W3C//DTD SVG 1.1//EN" "http://www.w3.org/Graphics/SVG/1.1/DTD/svg11.dtd">
<svg version="1.1" xmlns="http://www.w3.org/2000/svg" xmlns:xlink="http://www.w3.org/1999/xlink" x="0px" y="0px" viewBox="0 0 1000 1000" enable-background="new 0 0 1000 1000" xml:space="preserve">
<metadata> Svg Vector Icons : http://www.onlinewebfonts.com/icon </metadata>
<g><g transform="translate(0.000000,511.000000) scale(0.100000,-0.100000)"><path d="M3911.8,3953.7c-15.6-3.9-95.3-17.5-175.1-29.2c-422.1-70-850-301.5-1169-636.1c-700.2-735.2-793.6-1826.5-227.6-2690.1c105-163.4,416.3-474.6,579.6-579.6c863.6-566,1954.8-472.7,2690.1,227.6c328.7,313.2,550.5,715.8,638,1159.3c33.1,171.2,35,639.9,0,797.5c-91.4,433.8-270.4,778-564.1,1083.4c-315.1,330.7-673,532.9-1120.4,630.2C4439,3943.9,3979.9,3971.2,3911.8,3953.7z M4355.3,2940.3c462.9-93.4,815-451.2,910.3-920c97.2-488.2-149.8-1003.7-595.2-1235.1c-190.6-99.2-332.6-134.2-544.6-134.2c-317,0-593.3,112.8-816.9,336.5c-223.7,223.7-336.5,499.9-336.5,816.9c0,443.5,239.2,836.4,630.2,1028.9C3871,2965.6,4083,2996.7,4355.3,2940.3z"/><path d="M7893.4,1965.8c-7.8-5.8-13.6-247-13.6-534.9V909.6h-521.3c-379.3,0-527.1-5.8-544.6-23.3c-33.1-33.1-33.1-873.4,0-906.4c17.5-17.5,165.3-23.3,544.6-23.3h521.3v-523.2c0-295.7,7.8-529.1,17.5-534.9c15.6-9.7,527.1-17.5,815-13.6l101.2,2v534.9v534.9l540.7,3.9l538.8,5.8l5.8,455.2c3.9,352.1-1.9,459.1-19.5,472.7c-13.6,7.8-258.7,15.6-544.6,15.6h-521.3v534.9v534.9h-453.2C8109.4,1979.4,7899.3,1973.6,7893.4,1965.8z"/><path d="M1836.4-765.2c-266.5-31.1-536.8-143.9-766.4-320.9c-548.5-422.1-923.9-1324.6-964.8-2322.5c-9.7-233.4-7.8-268.4,21.4-297.6c31.1-31.1,282-33.1,3991.4-33.1c2692,0,3971.9,5.8,3997.2,19.5c33.1,17.5,37,42.8,37,206.2c0,546.6-143.9,1190.4-373.5,1657.2c-274.2,562.1-665.2,916.1-1174.8,1058.1l-153.7,44.7l-2236.9,1.9C2984-749.6,1912.3-755.4,1836.4-765.2z M6494.9-1823.3c126.4-68.1,252.9-206.2,346.2-373.5c68.1-122.5,202.3-466.8,202.3-521.3c0-25.3-373.5-29.2-2919.6-29.2H1204.2l13.6,64.2c70,315.1,284,686.6,472.7,818.9c165.3,112.8,37,107,2464.4,103.1l2236.9-3.9L6494.9-1823.3z"/></g></g>
</svg>